# xmcd
#
# Track frame offsets:
#	150
#	16948
#	32786
#	47166
#	65750
#	83586
#	103495
#	122540
#	139569
#	160285
#	175854
#
# Disc length: 2544 seconds
#
# Revision: 0
# Processed by: cddbd v1.5.2PL0 Copyright (c) Steve Scherf et al.
# Submitted via: EasyCDDAExtractor 10.0.2.1
#
DISCID=8f09ee0b
DTITLE=Kellie Pickler - Small Town Girl
DYEAR=2006
DGENRE=Country
TTITLE0=Red High Heels
TTITLE1=Gotta Keep Moving
TTITLE2=Things That Never Cross A Man's Mind
TTITLE3=Didn't You Know How Much I Loved You
TTITLE4=I Wonder
TTITLE5=Small Town Girl
TTITLE6=Wild Ponies
TTITLE7=Girls Like Me
TTITLE8=I'm On My Way
TTITLE9=One Of The Guys
TTITLE10=My Angel
EXTD=
EXTT0=
EXTT1=
EXTT2=
EXTT3=
EXTT4=
EXTT5=
EXTT6=
EXTT7=
EXTT8=
EXTT9=
EXTT10=
PLAYORDER=
